{"title":"Jason.Bourne.2016.CAM.V2.READNFO.XviD-BiGDADDYVAiN","uid":15474972,"size":1489889788,"categoryP":"video","categoryS":"movies","magnet":"?xt=urn:btih:760c5186bad4ce6f1c609ce19d5d6deedcbd54b0&amp;dn=Jason.Bourne.2016.CAM.V2.READNFO.XviD-BiGDADDYVAiN&amp;tr=udp%3A%2F%2Ftracker.leechers-paradise.org%3A6969&amp;tr=udp%3A%2F%2Fzer0day.ch%3A1337&amp;tr=udp%3A%2F%2Fopen.demonii.com%3A1337&amp;tr=udp%3A%2F%2Ftracker.coppersurfer.tk%3A6969&amp;tr=udp%3A%2F%2Fexodus.desync.com%3A6969","seeders":10,"leechers":7,"uploader":"xxxlavalxxx","files":4,"time":1470178300,"description":"http://extraimago.com/image/w2aW\r\n \nhttp://www.imdb.com/title/tt4196776/\r\n\r\n\r\nThe most dangerous former operative of the CIA is drawn out of hiding to uncover hidden truths about his past.\r\n\r\nDirector: Paul Greengrass\r\nWriters: Paul Greengrass, Christopher Rouse\r\nStars: Matt Damon, Tommy Lee Jones, Alicia Vikander\r\nGenres: Action | Thriller\r\nCountry: USA\r\nLanguage: English | German\r\n\r\n\r\nP R E S E N T S . . . . \r\n\r\nJason.Bourne.2016.CAM.V2.READNFO.XviD-BiGDADDYVAiN\r\n\r\niMDB........: http://www.imdb.com/title/tt4196776/\r\n\r\nT E C H N i C A L . i N F O . . .\r\n\r\nBasic Information\r\nFormat                      : AVI\r\nFormat/Info                 : Audio Video Interleave\r\nFile size                   : 1.37 GiB\r\nDuration                    : 1 h 53 min\r\nOverall bit rate            : 1 731 kb/s\r\nWriting application         : VirtualDubMod 1.5.10.2 (build 2540/release)\r\nWriting library             : VirtualDubMod build 2540/release\r\n\r\nVideo\r\nID                          : 0\r\nFormat                      : MPEG-4 Visual\r\nFormat profile              : Advanced   \r\nFormat settings, BVOP       : 2\r\nFormat settings, QPel       : No\r\nFormat settings, GMC        : No warppoints\r\nFormat settings, Matrix     : Default (MPEG)\r\nMuxing mode                 : Packed bitstream\r\nCodec ID                    : XVID\r\nCodec ID/Hint               : XviD\r\nDuration                    : 1 h 53 min\r\nBit rate                    : 1 594 kb/s\r\nWidth                       : 634 pixels\r\nHeight                      : 240 pixels\r\nDisplay aspect ratio        : 2.642\r\nFrame rate                  : 25.000 FPS\r\nColor space                 : YUV\r\nChroma subsampling          : 4:2:0\r\nBit depth                   : 8 bits\r\nScan type                   : Progressive\r\nCompression mode            : Lossy\r\nBits/(Pixel*Frame)          : 0.419\r\nStream size                 : 1.26 GiB (92%)\r\nWriting library             : XviD 67\r\n\r\nAudio\r\nID                          : 1\r\nFormat                      : AC-3\r\nFormat/Info                 : Audio Coding 3\r\nMode extension              : CM (complete main)\r\nFormat settings, Endianness : Big\r\nCodec ID                    : 2000\r\nDuration                    : 1 h 53 min\r\nBit rate mode               : Constant\r\nBit rate                    : 128 kb/s\r\nChannel(s)                  : 2 channels\r\nChannel positions           : Front: L R\r\nSampling rate               : 32.0 kHz\r\nFrame rate                  : 20.833 FPS (1536 spf)\r\nCompression mode            : Lossy\r\nStream size                 : 104 MiB (7%)\r\nAlignment                   : Split accross interleaves\r\nInterleave, duration        : 40  ms (1.00 video frame)\r\nInterleave, preload duratio : 500  ms\r\n\r\nE N C O D E R S . N O T E S . . .  \r\n\r\nSOURCE......: ViDEO...UnKnOwN\r\n............: AUDiO...UnKnOwN\r\nSAMPLE......: Yippers \r\nADDED NOTE..: Well gud for UnKnOwN to bring us a great release. however, seen it had some issues with rotatiion and perspective. So took video, rotated, cropped, resized &amp; fixed perspective. as you can see lost sum vid in the process of doing this and rez changed a bit also. once dun with that, ran it through sum of the ol poo shine filters and here we have it... a cam LOL!!! all that work for a cam... \r\nAudio was cool, ran that through sum filters as well\r\n\r\n*** same as 1st release but not with the borked audio. Fixed the last few minutes.... sorry\r\n\r\n \nhttp://extraimago.com/image/w2jz \nhttp://extraimago.com/image/w2j0 \nhttp://extraimago.com/image/w2jJ \nhttp://extraimago.com/image/w2jK","torrent":{"xt":"urn:btih:760c5186bad4ce6f1c609ce19d5d6deedcbd54b0","amp;dn":"Jason.Bourne.2016.CAM.V2.READNFO.XviD-BiGDADDYVAiN","amp;tr":["udp%3A%2F%2Ftracker.leechers-paradise.org%3A6969","udp%3A%2F%2Fzer0day.ch%3A1337","udp%3A%2F%2Fopen.demonii.com%3A1337","udp%3A%2F%2Ftracker.coppersurfer.tk%3A6969","udp%3A%2F%2Fexodus.desync.com%3A6969"],"infoHash":"760c5186bad4ce6f1c609ce19d5d6deedcbd54b0","infoHashBuffer":{"type":"Buffer","data":[118,12,81,134,186,212,206,111,28,96,156,225,157,93,109,238,220,189,84,176]},"announce":[],"urlList":[]}}